<svg width="77" height="79" viewBox="0 0 77 79" fill="none" xmlns="http://www.w3.org/2000/svg">
    <g clip-path="url(#clip0_2_2563)">
        <path fill-rule="evenodd" clip-rule="evenodd"
              d="M76.7062 9.74545C77.6482 40.8602 64.8235 63.9455 38.7537 79C12.6855 63.9455 -0.139208 40.8602 0.802755 9.74545C22.5706 -3.24695 54.9337 -3.25001 76.7062 9.74545Z"
              fill="white"/>
        <path fill-rule="evenodd" clip-rule="evenodd"
              d="M38.7559 75.6121C62.8125 61.7195 74.6455 40.4176 73.7767 11.7063C53.6841 -0.286446 23.8215 -0.283385 3.73517 11.7063C2.86482 40.4176 14.6993 61.7195 38.7559 75.6121ZM38.7541 73.2776C61.2693 60.276 72.3471 40.3381 71.5328 13.4654C52.7278 2.24112 24.7772 2.24418 5.97689 13.4654C5.1626 40.3381 16.2388 60.276 38.7541 73.2776Z"
              fill="#181818"/>
        <path d="M65.5789 20.6497L67.536 15.7938L68.7644 16.3985L66.8073 21.2544L65.5789 20.6497ZM64.5559 20.1369L63.3244 19.5322L64.7848 15.9071L64.0562 15.5489L64.5528 14.3181L67.2417 15.6408L66.745 16.8716L66.0164 16.5133L64.5559 20.1369ZM61.4202 16.671L61.9262 16.8639L62.2501 14.9044L61.4202 16.671ZM59.4117 17.8697L61.9745 13.2235L63.4053 13.7685L62.8339 19.1724L61.5961 18.7025L61.73 17.9248L60.9796 17.6385L60.6511 18.3427L59.4117 17.8697ZM56.2044 16.7889L57.5309 11.6789L59.0163 12.1489C59.5192 12.3081 59.8788 12.5744 60.0952 12.948C60.3101 13.323 60.3552 13.7517 60.2291 14.237C60.1513 14.5355 60.0205 14.7712 59.8368 14.9396C59.6515 15.1095 59.4133 15.2167 59.1206 15.2611L59.4491 17.8146L58.0805 17.3813L58.0105 15.2198L57.4967 17.1976L56.2044 16.7889ZM58.5476 13.1485L58.2316 14.3656C58.4075 14.4161 58.5492 14.4069 58.655 14.3349C58.7609 14.263 58.8403 14.1237 58.8933 13.9155C58.9462 13.7134 58.9478 13.5481 58.8964 13.4225C58.8466 13.297 58.7469 13.2113 58.5974 13.1638L58.5476 13.1485ZM52.8772 13.9323L53.5202 10.592L54.8327 10.8997L54.1632 14.3793C54.1336 14.5309 54.1367 14.6488 54.1726 14.733C54.2084 14.8156 54.2784 14.8707 54.3812 14.8952C54.4855 14.9197 54.5711 14.9014 54.635 14.8416C54.6988 14.7804 54.744 14.6733 54.7735 14.5217L55.443 11.0421L56.7618 11.3513L56.1188 14.6916C55.988 15.3698 55.7622 15.8367 55.4399 16.0893C55.1192 16.3434 54.677 16.4031 54.1165 16.2715C53.5576 16.1398 53.1777 15.8872 52.9799 15.5122C52.7806 15.1386 52.7464 14.6105 52.8772 13.9323ZM50.6087 15.4907L51.3607 10.2414L52.6888 10.4741L51.9352 15.7234L50.6087 15.4907ZM50.4499 12.2453L50.4483 12.2683C50.4374 12.4719 50.4281 12.6234 50.4187 12.7214C50.3315 13.643 50.1276 14.3104 49.8099 14.7222C49.4923 15.134 49.0501 15.307 48.4819 15.2412C47.912 15.1754 47.4916 14.8845 47.2254 14.3686C46.9591 13.8542 46.8657 13.1592 46.9498 12.2882C47.0339 11.4049 47.2565 10.7435 47.6162 10.3042C47.9758 9.86483 48.4492 9.67959 49.0315 9.74695C49.4472 9.79441 49.7726 9.93984 50.0092 10.1787C50.2459 10.4175 50.4094 10.765 50.4981 11.2212L49.2961 11.5258C49.2603 11.3375 49.2121 11.1967 49.1498 11.1079C49.0875 11.0191 49.0019 10.9686 48.896 10.9563C48.7294 10.9364 48.6033 11.0267 48.5161 11.2288C48.4305 11.4294 48.3604 11.8136 48.3059 12.3785C48.253 12.9403 48.2483 13.3292 48.295 13.5435C48.3417 13.7578 48.446 13.8741 48.6095 13.8925C48.731 13.9063 48.8291 13.8604 48.9007 13.7532C48.9723 13.646 49.0206 13.4761 49.0424 13.245L49.0486 13.1715L48.6531 13.1256L48.7559 12.0509L50.4499 12.2453ZM43.3096 14.6289L43.4778 9.31678L44.8214 9.36883L44.6533 14.6809L43.3096 14.6289ZM40.5507 14.5462L40.6348 9.23105L41.9862 9.25708L41.9224 13.2526L42.9079 13.271L42.8877 14.5891L40.5507 14.5462ZM38.606 14.4666V9.15145H39.9513V14.4666H38.606ZM38.1203 11.3712V11.3942C38.1327 11.5978 38.139 11.7493 38.1405 11.8488C38.1545 12.775 38.0284 13.4654 37.7575 13.917C37.4881 14.3686 37.0678 14.5998 36.4964 14.612C35.9218 14.6227 35.475 14.39 35.1527 13.9139C34.832 13.4394 34.6638 12.7627 34.6498 11.8871C34.6358 10.9992 34.7837 10.3134 35.092 9.82809C35.4003 9.34281 35.8487 9.09634 36.4356 9.08562C36.8529 9.07797 37.1923 9.17594 37.4539 9.38108C37.7155 9.58621 37.9148 9.90922 38.0549 10.3501L36.8949 10.814C36.8389 10.6303 36.7751 10.4986 36.7034 10.419C36.6318 10.3394 36.5415 10.3011 36.4341 10.3027C36.2659 10.3057 36.1507 10.4129 36.0869 10.6241C36.0246 10.8354 35.9966 11.2242 36.0044 11.7937C36.0137 12.3586 36.0526 12.7444 36.1227 12.951C36.1928 13.1577 36.308 13.2587 36.4746 13.2557C36.5976 13.2526 36.6879 13.1944 36.7486 13.0781C36.8093 12.9618 36.8358 12.7872 36.8327 12.5545L36.8311 12.4811L36.4325 12.4887L36.4154 11.4079L38.1203 11.3712ZM32.9029 14.6733L32.6507 9.36577L33.9928 9.28769L34.245 14.5967L32.9029 14.6733ZM28.5294 9.69796L29.8653 9.56937L30.6391 12.9817L30.8679 9.47293L32.2007 9.34434L31.5234 14.7452L30.0412 14.8891L28.5294 9.69796ZM23.175 13.4838C23.01 12.625 23.0349 11.9238 23.2528 11.3773C23.4708 10.8323 23.8585 10.494 24.4174 10.3639C24.9748 10.2338 25.4513 10.367 25.8483 10.7665C26.2453 11.1645 26.5256 11.7952 26.6922 12.6571C26.8572 13.5159 26.8323 14.2171 26.619 14.759C26.4041 15.3009 26.0164 15.6377 25.4575 15.7678C24.897 15.8995 24.4174 15.7663 24.0189 15.3667C23.6203 14.9687 23.3385 14.3395 23.175 13.4838ZM24.4953 13.1363C24.5996 13.6767 24.7024 14.0395 24.8051 14.2217C24.9063 14.4054 25.0402 14.4788 25.2006 14.4406C25.361 14.4038 25.4528 14.2783 25.4793 14.0686C25.5042 13.8588 25.4653 13.4807 25.3594 12.9342C25.2551 12.3877 25.1508 12.0233 25.0496 11.8412C24.9484 11.659 24.8176 11.587 24.6588 11.6238C24.4984 11.6621 24.4034 11.7876 24.3785 12.0019C24.3521 12.2162 24.391 12.5943 24.4953 13.1363ZM20.3958 16.9328L19.3137 11.7539L20.7072 11.3987C21.302 11.2472 21.7737 11.2809 22.1209 11.4998C22.4681 11.7187 22.7048 12.132 22.8309 12.7413C22.9383 13.2572 22.8838 13.6981 22.6674 14.067C22.4494 14.4344 22.0991 14.6809 21.6118 14.8064L21.3456 14.8738L21.7068 16.6006L20.3958 16.9328ZM20.8551 12.5239L21.0949 13.6751C21.2957 13.6185 21.4327 13.5343 21.5075 13.421C21.5822 13.3062 21.6009 13.1531 21.5604 12.9587C21.5199 12.7673 21.4452 12.6342 21.3347 12.5576C21.2241 12.4826 21.0809 12.4673 20.9065 12.5117L20.8551 12.5239ZM16.8475 18.1805L15.44 13.098L16.9191 12.5989C17.4189 12.4305 17.8517 12.4367 18.2176 12.6204C18.5835 12.8056 18.8326 13.1378 18.9665 13.62C19.049 13.917 19.0553 14.1926 18.9836 14.4467C18.9136 14.7008 18.7641 14.9335 18.5415 15.1478L20.0766 17.092L18.7143 17.5528L17.5902 15.7816L18.1351 17.7488L16.8475 18.1805ZM17.0188 13.718L17.3535 14.9289C17.5263 14.8646 17.64 14.7728 17.6929 14.6488C17.7459 14.5248 17.7443 14.3594 17.6867 14.1528C17.6306 13.9522 17.5512 13.8129 17.4469 13.7379C17.3442 13.6629 17.2181 13.6506 17.0686 13.7012L17.0188 13.718ZM12.2934 17.4732C11.996 16.6588 11.9104 15.9638 12.0396 15.3851C12.1688 14.8064 12.4973 14.3992 13.0267 14.1635C13.5545 13.9277 14.045 13.9691 14.4996 14.2859C14.9527 14.6028 15.3279 15.1693 15.6268 15.9867C15.9242 16.8011 16.0098 17.4962 15.8837 18.0718C15.7576 18.6474 15.4291 19.0515 14.8997 19.2888C14.3688 19.5261 13.8753 19.4863 13.4206 19.1694C12.9675 18.851 12.5908 18.2861 12.2934 17.4732ZM13.5405 16.8777C13.7289 17.3905 13.8862 17.7273 14.0169 17.8881C14.1462 18.0488 14.2878 18.0947 14.4404 18.0274C14.5915 17.96 14.6631 17.8192 14.6553 17.6064C14.6475 17.3951 14.5479 17.0292 14.3595 16.5118C14.1695 15.9944 14.0107 15.6545 13.883 15.4953C13.7538 15.3361 13.6152 15.2887 13.4642 15.3575C13.3116 15.4249 13.2385 15.5673 13.2478 15.7847C13.254 16.0005 13.3521 16.3649 13.5405 16.8777ZM12.9255 20.0052C12.8305 20.1231 12.7324 20.2272 12.6312 20.3129C12.53 20.3987 12.4257 20.4706 12.3121 20.5288C12.0925 20.6421 11.8621 20.7018 11.6208 20.7064C11.3779 20.711 11.1334 20.6635 10.8874 20.5625C10.5932 20.4385 10.3285 20.241 10.0949 19.9685C9.8614 19.696 9.65121 19.3408 9.46594 18.9015C9.15921 18.1743 9.07202 17.4977 9.20437 16.8731C9.33671 16.2485 9.65589 15.8061 10.1619 15.5458C10.288 15.4815 10.4157 15.4295 10.5449 15.3897C10.6741 15.3499 10.808 15.3239 10.9404 15.307L11.4277 16.4628C11.3327 16.4552 11.2424 16.4598 11.1552 16.4735C11.0696 16.4889 10.9918 16.5133 10.9233 16.5501C10.6804 16.6756 10.5434 16.8823 10.5138 17.1731C10.4842 17.4625 10.5605 17.8284 10.7458 18.2646C10.9201 18.678 11.1179 18.9658 11.3374 19.1265C11.5569 19.2873 11.7811 19.3102 12.0069 19.1923C12.091 19.1495 12.1657 19.0944 12.2342 19.027C12.3012 18.9597 12.3619 18.8816 12.4133 18.7928L12.9255 20.0052Z"
              fill="#181818"/>
        <path fill-rule="evenodd" clip-rule="evenodd"
              d="M26.8447 31.6042C24.419 36.3789 27.6886 41.094 32.839 42.4519C37.8664 43.7852 43.4139 43.5755 48.5301 42.8361V38.9707C48.5301 37.5332 47.9275 37.2653 46.5527 36.9683C45.1951 36.6744 43.8 36.7065 42.419 36.7065V36.2014H65.4138V36.7065C63.6746 36.754 62.4587 36.8474 61.7674 36.9882C60.4595 37.2684 59.8725 37.6741 59.8725 38.9722V42.8376C53.4049 43.9674 46.8205 44.442 40.2502 44.442C33.6751 44.442 13.4424 43.6674 13.4424 34.9522C13.4424 30.0136 20.7539 27.6745 24.9437 26.6013L26.8447 31.6042ZM59.8725 24.9863V31.5384H58.574C57.014 29.7457 54.6785 28.3848 51.5568 27.4525C46.4951 25.937 40.6409 25.5956 35.4049 26.511C35.2336 26.0472 35.0639 25.5833 34.8973 25.1195C40.384 24.7796 45.7462 25.0093 51.1629 25.8145C53.4501 26.1559 54.8093 26.3289 55.225 26.3289C56.5453 26.3289 57.699 25.963 58.5725 24.9863H59.8725V24.9863Z"
              fill="#181818"/>
        <path fill-rule="evenodd" clip-rule="evenodd"
              d="M31.1906 41.2276L26.3453 28.3975C24.9565 24.7204 24.0457 22.5527 23.5833 21.9158C23.1131 21.2683 22.2318 20.8626 20.938 20.6988V19.6456H37.5928V20.6988C36.4905 20.6988 34.9989 20.6115 34.1006 21.3173C33.3143 21.9005 33.5151 22.9783 33.7316 23.7712L40.7426 42.757H40.7348C37.5648 42.708 34.1317 42.4676 31.1906 41.2276ZM44.8343 44.9997L38.6718 61.0354L32.5327 44.7823C35.5345 45.0471 38.5566 45.0976 41.5693 45.0732H41.6036L42.1687 46.5887L42.7619 45.0563C43.4532 45.0425 44.1445 45.0242 44.8343 44.9997ZM47.548 37.9409L45.784 42.5304C45.0834 42.5978 44.3812 42.6575 43.679 42.6957L45.7046 37.4694C46.1561 37.5398 46.8894 37.6561 47.548 37.9409ZM51.3564 28.0622L48.4604 35.5635H46.4426L49.5129 27.5754C50.17 27.7086 50.7725 27.8801 51.3564 28.0622ZM57.072 19.6456V20.6988C55.8622 20.9208 54.7708 21.6602 53.8304 22.9308C53.4754 23.4115 53.0317 24.2228 52.5054 25.3679C51.7736 25.2638 51.0419 25.1521 50.3101 25.0464C50.4269 24.5214 50.4798 24.059 50.4798 23.6641C50.4798 22.6001 49.9722 21.6388 48.9353 21.181C48.23 20.8519 47.2896 20.6973 46.1312 20.6973V19.644H57.072V19.6456Z"
              fill="#181818"/>
        <path fill-rule="evenodd" clip-rule="evenodd"
              d="M69.8073 14.8172C70.578 40.2754 60.084 59.1647 38.7537 71.482C17.4233 59.1631 6.92935 40.2754 7.70004 14.8172C25.5132 4.1869 51.9925 4.18383 69.8073 14.8172ZM70.6698 14.1421C71.4623 40.3075 60.6772 59.7204 38.7537 72.3806C16.8316 59.7204 6.04655 40.3075 6.83904 14.1421C25.1442 3.2148 52.3599 3.21327 70.6698 14.1421Z"
              fill="#181818"/>
        <path d="M34.242 66.683V63.5509H33.8574V62.6002H35.3319V66.683H34.242Z" fill="#181818"/>
        <path d="M37.8599 63.9727C37.8599 63.7921 37.8397 63.6574 37.7976 63.5686C37.7556 63.4798 37.6933 63.4354 37.6093 63.4354C37.5205 63.4354 37.4551 63.4783 37.4177 63.564C37.3788 63.6497 37.3601 63.7906 37.3601 63.9881C37.3601 64.1733 37.3788 64.308 37.4177 64.3937C37.4551 64.4795 37.5158 64.5223 37.5999 64.5223C37.6871 64.5223 37.7541 64.4764 37.7976 64.3845C37.8381 64.2958 37.8599 64.1565 37.8599 63.9727ZM37.6202 65.2571C37.547 65.2908 37.4769 65.3168 37.4068 65.3337C37.3368 65.3521 37.2683 65.3597 37.2013 65.3597C36.9242 65.3597 36.6969 65.2449 36.5225 65.0137C36.3466 64.7841 36.2578 64.4841 36.2578 64.1151C36.2578 63.6344 36.3777 63.2487 36.6175 62.9563C36.8572 62.6654 37.1733 62.5184 37.5625 62.5184C37.9767 62.5184 38.3099 62.6593 38.5652 62.9425C38.8206 63.2257 38.9482 63.5977 38.9482 64.0585C38.9482 64.4381 38.861 64.8469 38.6898 65.2878C38.5185 65.7286 38.2632 66.1925 37.9253 66.6808H36.6844C36.8822 66.4466 37.0565 66.2109 37.2122 65.9751C37.3664 65.7409 37.5034 65.5005 37.6202 65.2571Z"
              fill="#181818"/>
        <path d="M39.0312 66.6828C39.5995 65.8791 40.009 65.2453 40.2597 64.7815C40.5088 64.3176 40.6334 63.9609 40.6334 63.7099C40.6334 63.5966 40.6116 63.5109 40.5664 63.4527C40.5213 63.3945 40.4543 63.3654 40.3656 63.3654C40.269 63.3654 40.2005 63.4144 40.1616 63.5139C40.1227 63.6134 40.1009 63.8078 40.0978 64.0987H39.1247C39.1247 64.0819 39.1231 64.0574 39.1216 64.0206C39.12 63.987 39.1184 63.9609 39.1184 63.9441C39.1184 63.4787 39.2305 63.1251 39.4547 62.8817C39.6789 62.6383 40.0059 62.5173 40.4372 62.5173C40.8436 62.5173 41.1643 62.6184 41.4009 62.822C41.6392 63.0256 41.7575 63.3027 41.7575 63.6517C41.7575 63.9211 41.6859 64.2181 41.5457 64.5381C41.4041 64.8596 41.1674 65.2499 40.8373 65.7122H41.675V66.6798H39.0312V66.6828Z"
              fill="#181818"/>
        <path d="M42.0568 65.5441C42.1954 65.6252 42.3293 65.6864 42.4554 65.7278C42.5831 65.7691 42.7061 65.7905 42.826 65.7905C43.0097 65.7905 43.1607 65.7477 43.279 65.6619C43.3958 65.5762 43.455 65.4675 43.455 65.3374C43.455 65.1644 43.3896 65.0312 43.2588 64.9378C43.128 64.846 42.9412 64.7985 42.6998 64.7985C42.6127 64.7985 42.5177 64.8077 42.4149 64.8261C42.3137 64.8445 42.2016 64.8735 42.0802 64.9133L42.4352 62.6002H44.509V63.4988H43.2168L43.1171 64.0821C43.181 64.0683 43.2432 64.0591 43.3024 64.053C43.36 64.0469 43.4176 64.0438 43.4721 64.0438C43.8255 64.0438 44.1182 64.1617 44.3549 64.3974C44.59 64.6332 44.7068 64.9287 44.7068 65.2838C44.7068 65.7201 44.5526 66.0753 44.2459 66.3508C43.9392 66.6264 43.5375 66.7626 43.0408 66.7626C42.8509 66.7626 42.6609 66.7412 42.4694 66.6968C42.2795 66.6524 42.0848 66.5866 41.8887 66.4978L42.0568 65.5441Z"
              fill="#181818"/>
    </g>
    <defs>
        <clipPath id="clip0_2_2563">
            <rect width="76" height="79" fill="white" transform="translate(0.754883)"/>
        </clipPath>
    </defs>
</svg>
